<?xml version="1.0" standalone="no"?>
<!DOCTYPE svg PUBLIC "-//W3C//DTD SVG 20010904//EN"
 "http://www.w3.org/TR/2001/REC-SVG-20010904/DTD/svg10.dtd">
<svg version="1.0" xmlns="http://www.w3.org/2000/svg"
 width="452.000000pt" height="452.000000pt" viewBox="0 0 452.000000 452.000000"
 preserveAspectRatio="xMidYMid meet">
<metadata>
Created by potrace 1.14, written by Peter Selinger 2001-2017
</metadata>
<g transform="translate(0.000000,452.000000) scale(0.100000,-0.100000)"
fill="#000000" stroke="none">
<path d="M2111 4494 c-130 -27 -246 -88 -356 -187 -146 -132 -227 -302 -253
-532 -15 -126 -7 -491 12 -592 2 -10 7 -39 10 -65 10 -77 59 -191 133 -311 24
-39 24 -40 7 -152 -24 -161 -58 -222 -142 -261 -23 -10 -42 -22 -42 -25 0 -13
212 -345 321 -502 167 -240 425 -567 447 -567 11 0 196 226 311 380 85 114
354 512 395 585 10 17 28 48 41 69 l24 40 -42 19 c-99 44 -131 117 -162 367
-5 40 1 57 55 165 53 106 61 132 75 225 68 478 19 845 -139 1053 -172 225
-450 341 -695 291z"/>
<path d="M1381 2426 c-9 -11 -29 -15 -70 -13 -50 2 -61 -2 -97 -30 -40 -32
-56 -38 -128 -48 -68 -9 -85 -16 -92 -37 -8 -25 -67 -51 -119 -51 -22 0 -58
10 -79 21 l-39 21 -48 -34 c-58 -44 -102 -62 -165 -71 -27 -3 -51 -8 -53 -10
-8 -7 243 -362 404 -568 97 -125 230 -287 301 -366 125 -138 378 -379 583
-556 19 -16 39 -34 45 -39 35 -33 193 -160 261 -211 77 -58 115 -80 115 -67 0
3 -25 43 -55 88 -99 146 -65 156 72 20 153 -151 154 -151 204 -105 29 26 52
35 80 32 4 -1 6 6 5 15 -2 32 23 23 84 -29 138 -118 177 -150 225 -182 58 -38
245 -138 245 -131 0 3 -35 40 -78 83 -123 122 -234 264 -219 279 3 3 21 -6 39
-20 49 -36 114 -67 143 -67 38 0 36 4 -41 96 -23 27 -88 105 -145 174 -57 69
-108 130 -114 136 -5 6 -23 28 -40 49 -16 21 -40 49 -53 63 -12 14 -33 39 -45
55 -12 16 -29 36 -37 45 -9 10 -36 42 -60 72 -25 30 -47 57 -50 60 -8 7 -247
298 -393 479 -139 171 -312 425 -457 671 -57 96 -106 179 -110 183 -4 4 -12 1
-19 -7z"/>
<path d="M3273 2423 c-87 -33 -110 -37 -149 -25 -43 13 -46 10 -87 -68 -27
-52 -62 -114 -141 -254 -31 -54 -56 -100 -56 -102 0 -21 -287 -428 -320 -454
-3 -3 -19 -23 -35 -45 -17 -22 -32 -42 -36 -45 -3 -3 -40 -49 -83 -102 l-78
-98 20 -22 c11 -13 99 -117 195 -233 216 -259 230 -275 242 -275 6 0 62 34
125 75 93 61 110 75 87 75 -16 0 -27 5 -27 14 0 8 64 74 142 148 77 73 153
146 167 162 87 99 105 116 114 107 5 -5 6 -18 2 -29 -12 -38 -100 -141 -173
-203 -55 -46 -72 -66 -70 -82 6 -44 82 -1 147 84 18 24 108 121 200 214 263
268 394 441 483 635 34 74 93 247 103 301 6 32 4 36 -22 48 -15 7 -44 23 -64
37 -28 19 -41 23 -60 16 -24 -9 -36 -9 -99 4 -19 4 -42 9 -50 10 -8 2 -45 6
-82 9 -68 6 -82 11 -153 56 -36 22 -116 47 -181 54 -12 1 -39 -4 -61 -12z"/>
<path d="M3015 834 c-41 -31 -121 -100 -148 -128 -26 -27 -27 -31 -12 -42 34
-25 88 15 156 113 47 69 49 91 4 57z"/>
<path d="M2350 301 c0 -17 175 -191 193 -191 38 0 8 72 -50 117 -40 31 -125
83 -136 83 -4 0 -7 -4 -7 -9z"/>
<path d="M3040 242 c0 -11 69 -92 141 -168 42 -43 70 -64 86 -64 54 0 10 86
-78 152 -59 44 -149 93 -149 80z"/>
</g>
</svg>
